# xmcd
#
# Track frame offsets:
#	182
#	13550
#	26995
#	39960
#	50212
#	63102
#	85107
#	103170
#	119127
#	132685
#	144055
#	155687
#	171882
#	193152
#	212445
#	225300
#
# Disc length: 3169 seconds
#
# Revision: 7
# Processed by: cddbd v1.5.2PL0 Copyright (c) Steve Scherf et al.
# Submitted via: audiograbber 1.83.01
#
DISCID=df0c5f10
DTITLE=Various Artist - Play Me The Blues... The Legendary Blues Singers [CD 7-10)
DYEAR=1991
DGENRE=Blues
TTITLE0=B.B. King - When My Heart Beats Like A Hammer
TTITLE1=Howlin' Wolf - Tell Me
TTITLE2=Sonny Boy Williamson - All My Love In Vain
TTITLE3=John Lee Hooker - Dimples
TTITLE4=Little Walter - Everything's Gonna Be Alright
TTITLE5=Elmore James - Something Inside Of Me
TTITLE6=John Mayall - Mama Talk To Your Daughter
TTITLE7=Big Joe Williams - Nobody Knows When You're Down And Out
TTITLE8=Sonny Boy Williamson - Sad To Be Alone
TTITLE9=John Lee Hooker - Bottle Up And Go
TTITLE10=Muddy Waters - Just A Dream
TTITLE11=B.B. King - Long Nights
TTITLE12=Dave Brubeck - Blues In The Dark
TTITLE13=Mike Bloomfield - Eyesight To The Blind
TTITLE14=Little Walter - I Got To Find My Baby
TTITLE15=Eric Clapton - Freight Loader
EXTD=
EXTT0=
EXTT1=
EXTT2=
EXTT3=
EXTT4=
EXTT5=
EXTT6=
EXTT7=
EXTT8=
EXTT9=
EXTT10=
EXTT11=
EXTT12=
EXTT13=
EXTT14=
EXTT15=
PLAYORDER=
